G75*
%MOIN*%
%OFA0B0*%
%FSLAX25Y25*%
%IPPOS*%
%LPD*%
%AMOC8*
5,1,8,0,0,1.08239X$1,22.5*
%
%ADD10C,0.00000*%
D10*
X0006600Y0009100D02*
X0006600Y0074100D01*
X0006602Y0074198D01*
X0006608Y0074296D01*
X0006617Y0074394D01*
X0006631Y0074491D01*
X0006648Y0074588D01*
X0006669Y0074684D01*
X0006694Y0074779D01*
X0006722Y0074873D01*
X0006755Y0074965D01*
X0006790Y0075057D01*
X0006830Y0075147D01*
X0006872Y0075235D01*
X0006919Y0075322D01*
X0006968Y0075406D01*
X0007021Y0075489D01*
X0007077Y0075569D01*
X0007137Y0075648D01*
X0007199Y0075724D01*
X0007264Y0075797D01*
X0007332Y0075868D01*
X0007403Y0075936D01*
X0007476Y0076001D01*
X0007552Y0076063D01*
X0007631Y0076123D01*
X0007711Y0076179D01*
X0007794Y0076232D01*
X0007878Y0076281D01*
X0007965Y0076328D01*
X0008053Y0076370D01*
X0008143Y0076410D01*
X0008235Y0076445D01*
X0008327Y0076478D01*
X0008421Y0076506D01*
X0008516Y0076531D01*
X0008612Y0076552D01*
X0008709Y0076569D01*
X0008806Y0076583D01*
X0008904Y0076592D01*
X0009002Y0076598D01*
X0009100Y0076600D01*
X0049100Y0076600D01*
X0049198Y0076598D01*
X0049296Y0076592D01*
X0049394Y0076583D01*
X0049491Y0076569D01*
X0049588Y0076552D01*
X0049684Y0076531D01*
X0049779Y0076506D01*
X0049873Y0076478D01*
X0049965Y0076445D01*
X0050057Y0076410D01*
X0050147Y0076370D01*
X0050235Y0076328D01*
X0050322Y0076281D01*
X0050406Y0076232D01*
X0050489Y0076179D01*
X0050569Y0076123D01*
X0050648Y0076063D01*
X0050724Y0076001D01*
X0050797Y0075936D01*
X0050868Y0075868D01*
X0050936Y0075797D01*
X0051001Y0075724D01*
X0051063Y0075648D01*
X0051123Y0075569D01*
X0051179Y0075489D01*
X0051232Y0075406D01*
X0051281Y0075322D01*
X0051328Y0075235D01*
X0051370Y0075147D01*
X0051410Y0075057D01*
X0051445Y0074965D01*
X0051478Y0074873D01*
X0051506Y0074779D01*
X0051531Y0074684D01*
X0051552Y0074588D01*
X0051569Y0074491D01*
X0051583Y0074394D01*
X0051592Y0074296D01*
X0051598Y0074198D01*
X0051600Y0074100D01*
X0051600Y0009100D01*
X0051598Y0009002D01*
X0051592Y0008904D01*
X0051583Y0008806D01*
X0051569Y0008709D01*
X0051552Y0008612D01*
X0051531Y0008516D01*
X0051506Y0008421D01*
X0051478Y0008327D01*
X0051445Y0008235D01*
X0051410Y0008143D01*
X0051370Y0008053D01*
X0051328Y0007965D01*
X0051281Y0007878D01*
X0051232Y0007794D01*
X0051179Y0007711D01*
X0051123Y0007631D01*
X0051063Y0007552D01*
X0051001Y0007476D01*
X0050936Y0007403D01*
X0050868Y0007332D01*
X0050797Y0007264D01*
X0050724Y0007199D01*
X0050648Y0007137D01*
X0050569Y0007077D01*
X0050489Y0007021D01*
X0050406Y0006968D01*
X0050322Y0006919D01*
X0050235Y0006872D01*
X0050147Y0006830D01*
X0050057Y0006790D01*
X0049965Y0006755D01*
X0049873Y0006722D01*
X0049779Y0006694D01*
X0049684Y0006669D01*
X0049588Y0006648D01*
X0049491Y0006631D01*
X0049394Y0006617D01*
X0049296Y0006608D01*
X0049198Y0006602D01*
X0049100Y0006600D01*
X0009100Y0006600D01*
X0009002Y0006602D01*
X0008904Y0006608D01*
X0008806Y0006617D01*
X0008709Y0006631D01*
X0008612Y0006648D01*
X0008516Y0006669D01*
X0008421Y0006694D01*
X0008327Y0006722D01*
X0008235Y0006755D01*
X0008143Y0006790D01*
X0008053Y0006830D01*
X0007965Y0006872D01*
X0007878Y0006919D01*
X0007794Y0006968D01*
X0007711Y0007021D01*
X0007631Y0007077D01*
X0007552Y0007137D01*
X0007476Y0007199D01*
X0007403Y0007264D01*
X0007332Y0007332D01*
X0007264Y0007403D01*
X0007199Y0007476D01*
X0007137Y0007552D01*
X0007077Y0007631D01*
X0007021Y0007711D01*
X0006968Y0007794D01*
X0006919Y0007878D01*
X0006872Y0007965D01*
X0006830Y0008053D01*
X0006790Y0008143D01*
X0006755Y0008235D01*
X0006722Y0008327D01*
X0006694Y0008421D01*
X0006669Y0008516D01*
X0006648Y0008612D01*
X0006631Y0008709D01*
X0006617Y0008806D01*
X0006608Y0008904D01*
X0006602Y0009002D01*
X0006600Y0009100D01*
M02*
