G75*
%MOIN*%
%OFA0B0*%
%FSLAX25Y25*%
%IPPOS*%
%LPD*%
%AMOC8*
5,1,8,0,0,1.08239X$1,22.5*
%
%ADD10R,0.07400X0.07400*%
%ADD11C,0.07400*%
%ADD12C,0.01200*%
D10*
X0038500Y0061000D03*
D11*
X0008500Y0008500D03*
X0008500Y0018500D03*
X0008500Y0028500D03*
X0008500Y0038500D03*
X0008500Y0051000D03*
X0008500Y0061000D03*
X0018500Y0061000D03*
X0018500Y0051000D03*
X0028500Y0051000D03*
X0028500Y0061000D03*
X0038500Y0051000D03*
X0038500Y0038500D03*
X0038500Y0028500D03*
X0038500Y0018500D03*
X0038500Y0008500D03*
D12*
X0028500Y0018500D01*
X0028500Y0051000D01*
X0033500Y0056000D02*
X0033500Y0023500D01*
X0038500Y0018500D01*
X0038500Y0028500D02*
X0042768Y0032768D01*
X0043500Y0034536D02*
X0043500Y0056000D01*
X0038500Y0061000D01*
X0033500Y0056000D02*
X0028500Y0061000D01*
X0018500Y0061000D02*
X0013500Y0056000D01*
X0013500Y0023500D01*
X0008500Y0018500D01*
X0018500Y0018500D02*
X0008500Y0008500D01*
X0018500Y0018500D02*
X0018500Y0051000D01*
X0008500Y0051000D02*
X0008500Y0038500D01*
X0003500Y0033500D02*
X0008500Y0028500D01*
X0003500Y0033500D02*
X0003500Y0056000D01*
X0008500Y0061000D01*
X0038500Y0051000D02*
X0038500Y0038500D01*
X0043500Y0034536D02*
X0043498Y0034438D01*
X0043492Y0034340D01*
X0043483Y0034242D01*
X0043469Y0034145D01*
X0043452Y0034048D01*
X0043431Y0033952D01*
X0043406Y0033857D01*
X0043378Y0033763D01*
X0043345Y0033671D01*
X0043310Y0033579D01*
X0043270Y0033489D01*
X0043228Y0033401D01*
X0043181Y0033314D01*
X0043132Y0033230D01*
X0043079Y0033147D01*
X0043023Y0033067D01*
X0042963Y0032988D01*
X0042901Y0032912D01*
X0042836Y0032839D01*
X0042768Y0032768D01*
M02*
