G75*
%MOIN*%
%OFA0B0*%
%FSLAX25Y25*%
%IPPOS*%
%LPD*%
%AMOC8*
5,1,8,0,0,1.08239X$1,22.5*
%
%ADD10C,0.00200*%
%ADD11C,0.01200*%
D10*
X0019739Y0013000D02*
X0020473Y0013000D01*
X0020106Y0013000D02*
X0020106Y0015202D01*
X0020473Y0015202D02*
X0019739Y0015202D01*
X0021215Y0014835D02*
X0021582Y0015202D01*
X0022316Y0015202D01*
X0022683Y0014835D01*
X0022683Y0014468D01*
X0022316Y0014101D01*
X0021582Y0014101D01*
X0021215Y0013734D01*
X0021215Y0013367D01*
X0021582Y0013000D01*
X0022316Y0013000D01*
X0022683Y0013367D01*
X0023425Y0013367D02*
X0023792Y0013000D01*
X0024526Y0013000D01*
X0024893Y0013367D01*
X0024893Y0014835D01*
X0024526Y0015202D01*
X0023792Y0015202D01*
X0023425Y0014835D01*
X0023425Y0013367D01*
X0025635Y0013000D02*
X0025635Y0015202D01*
X0026369Y0014468D01*
X0027103Y0015202D01*
X0027103Y0013000D01*
X0033112Y0013000D02*
X0033112Y0015202D01*
X0034580Y0015202D02*
X0033112Y0013000D01*
X0034580Y0013000D02*
X0034580Y0015202D01*
X0035322Y0014835D02*
X0035689Y0015202D01*
X0036423Y0015202D01*
X0036790Y0014835D01*
X0036790Y0014468D01*
X0036423Y0014101D01*
X0035689Y0014101D01*
X0035322Y0013734D01*
X0035322Y0013367D01*
X0035689Y0013000D01*
X0036423Y0013000D01*
X0036790Y0013367D01*
X0037532Y0013367D02*
X0037899Y0013000D01*
X0038633Y0013000D01*
X0039000Y0013367D01*
X0039000Y0014835D01*
X0038633Y0015202D01*
X0037899Y0015202D01*
X0037532Y0014835D01*
X0037899Y0023000D02*
X0037532Y0023367D01*
X0037899Y0023000D02*
X0038633Y0023000D01*
X0039000Y0023367D01*
X0039000Y0024835D01*
X0038633Y0025202D01*
X0037899Y0025202D01*
X0037532Y0024835D01*
X0036790Y0025202D02*
X0036790Y0023000D01*
X0035322Y0023000D01*
X0036056Y0024101D02*
X0036790Y0024101D01*
X0036790Y0025202D02*
X0035322Y0025202D01*
X0035322Y0033000D02*
X0035322Y0035202D01*
X0034580Y0035202D02*
X0033479Y0035202D01*
X0033112Y0034835D01*
X0033112Y0033367D01*
X0033479Y0033000D01*
X0034580Y0033000D01*
X0034580Y0035202D01*
X0036790Y0035202D02*
X0035322Y0033000D01*
X0036790Y0033000D02*
X0036790Y0035202D01*
X0037532Y0034835D02*
X0037899Y0035202D01*
X0038633Y0035202D01*
X0039000Y0034835D01*
X0039000Y0033367D01*
X0038633Y0033000D01*
X0037899Y0033000D01*
X0037532Y0033367D01*
X0037532Y0034101D01*
X0038266Y0034101D01*
X0038266Y0043000D02*
X0037532Y0043734D01*
X0037532Y0045202D01*
X0036790Y0044835D02*
X0036790Y0043367D01*
X0036423Y0043000D01*
X0035689Y0043000D01*
X0035322Y0043367D01*
X0034580Y0043367D02*
X0034580Y0044835D01*
X0034213Y0045202D01*
X0033479Y0045202D01*
X0033112Y0044835D01*
X0033112Y0043367D02*
X0033479Y0043000D01*
X0034213Y0043000D01*
X0034580Y0043367D01*
X0035322Y0044835D02*
X0035689Y0045202D01*
X0036423Y0045202D01*
X0036790Y0044835D01*
X0038266Y0043000D02*
X0039000Y0043734D01*
X0039000Y0045202D01*
X0027103Y0035202D02*
X0027103Y0033000D01*
X0025635Y0033000D02*
X0025635Y0035202D01*
X0026369Y0034468D01*
X0027103Y0035202D01*
X0024893Y0035202D02*
X0024159Y0035202D01*
X0024526Y0035202D02*
X0024526Y0033000D01*
X0024893Y0033000D02*
X0024159Y0033000D01*
X0023420Y0033367D02*
X0023053Y0033000D01*
X0022319Y0033000D01*
X0021952Y0033367D01*
X0021952Y0033734D01*
X0022319Y0034101D01*
X0023053Y0034101D01*
X0023420Y0034468D01*
X0023420Y0034835D01*
X0023053Y0035202D01*
X0022319Y0035202D01*
X0021952Y0034835D01*
X0021210Y0034835D02*
X0021210Y0033367D01*
X0020843Y0033000D01*
X0020109Y0033000D01*
X0019742Y0033367D01*
X0019742Y0034835D01*
X0020109Y0035202D01*
X0020843Y0035202D01*
X0021210Y0034835D01*
X0020843Y0043000D02*
X0020109Y0043000D01*
X0019742Y0043367D01*
X0019742Y0044835D01*
X0020109Y0045202D01*
X0020843Y0045202D01*
X0021210Y0044835D01*
X0021210Y0043367D01*
X0020843Y0043000D01*
X0020476Y0043734D02*
X0019742Y0043000D01*
X0021952Y0043000D02*
X0022686Y0043734D01*
X0022319Y0043734D02*
X0023420Y0043734D01*
X0023420Y0043000D02*
X0023420Y0045202D01*
X0022319Y0045202D01*
X0021952Y0044835D01*
X0021952Y0044101D01*
X0022319Y0043734D01*
X0024159Y0043000D02*
X0024893Y0043000D01*
X0024526Y0043000D02*
X0024526Y0045202D01*
X0024893Y0045202D02*
X0024159Y0045202D01*
X0024529Y0025202D02*
X0025263Y0025202D01*
X0025630Y0024835D01*
X0025630Y0024468D01*
X0025263Y0024101D01*
X0024529Y0024101D01*
X0024162Y0023734D01*
X0024162Y0023367D01*
X0024529Y0023000D01*
X0025263Y0023000D01*
X0025630Y0023367D01*
X0024162Y0024835D02*
X0024529Y0025202D01*
X0023420Y0024835D02*
X0023420Y0023367D01*
X0023053Y0023000D01*
X0022319Y0023000D01*
X0021952Y0023367D01*
X0021210Y0023734D02*
X0019742Y0025202D01*
X0020843Y0024101D02*
X0019742Y0023000D01*
X0021210Y0023000D02*
X0021210Y0025202D01*
X0021952Y0024835D02*
X0022319Y0025202D01*
X0023053Y0025202D01*
X0023420Y0024835D01*
D11*
X0009100Y0051600D02*
X0009100Y0071600D01*
X0039100Y0071600D01*
X0039100Y0061600D01*
X0049100Y0061600D01*
X0049100Y0051600D01*
X0009100Y0051600D01*
X0039100Y0071600D02*
X0049100Y0071600D01*
X0049100Y0061600D01*
M02*
